<?xml version="1.0" encoding="utf-8"?>
<!-- Generator: Adobe Illustrator 22.0.0, SVG Export Plug-In . SVG Version: 6.00 Build 0)  -->
<svg version="1.1" id="Layer_1" xmlns="http://www.w3.org/2000/svg" xmlns:xlink="http://www.w3.org/1999/xlink" x="0px" y="0px"
	 viewBox="0 0 85 51" style="enable-background:new 0 0 85 51;" xml:space="preserve">
<style type="text/css">
	.st0{fill:#EA4235;}
</style>
<g>
	<path d="M55.7,20.1c-0.4-3.3-3.3-5.9-6.8-5.9c-3.8,0-6.8,3.1-6.8,6.8c0,3.8,3.1,6.8,6.8,6.8c3.2,0,5.8-2.2,6.6-5.1h-1.5
		c-0.7,2.1-2.7,3.6-5.1,3.6c-3,0-5.4-2.4-5.4-5.4s2.4-5.4,5.4-5.4c2.7,0,4.9,1.9,5.3,4.5h-5.2v1.2v0.2h5.3h1.5h0v-0.2V21
		C55.8,20.7,55.8,20.4,55.7,20.1z"/>
	<rect x="64.2" y="20.1" transform="matrix(-1 -1.224647e-16 1.224647e-16 -1 139.5272 41.6436)" width="11.2" height="1.4"/>
	<rect x="53.3" y="20.1" transform="matrix(-1.836970e-16 1 -1 -1.836970e-16 81.1116 -39.1669)" width="13.7" height="1.7"/>
	<rect x="25.4" y="20.2" transform="matrix(-1.836970e-16 1 -1 -1.836970e-16 53.2324 -11.2877)" width="13.7" height="1.4"/>
	<rect x="34.8" y="14.1" width="8.4" height="1.4"/>
	<rect x="34.8" y="20.1" width="7.8" height="1.4"/>
	<path d="M72.3,30C72.3,30,72.3,30,72.3,30c0,1.8-1.4,3.2-3.2,3.2s-3.2-1.4-3.2-3.2c0,0,0,0,0,0h0v0v-0.1v-0.1v-1.5v-2v-0.7V14.2
		h-1.7v14.1V30v0v0h0c0,0,0,0,0,0h0c0,2.7,2.2,4.8,4.8,4.8c2.7,0,4.8-2.2,4.8-4.8H72.3z"/>
	<rect x="59.3" y="10.9" class="st0" width="1.7" height="1.7"/>
	<path d="M85,20.1h-1.5H72.9c0.4-2.6,2.6-4.5,5.3-4.5c1.8,0,3.5,0.9,4.4,2.3h1.7c-1.1-2.2-3.4-3.8-6.1-3.8c-3.5,0-6.4,2.7-6.8,6.1
		c0,0.2,0,0.5,0,0.7c0,0.2,0,0.3,0,0.6h1.5h10.7c-0.4,2.6-2.6,4.8-5.3,4.8c-1.8,0-3.4-0.9-4.4-2.2h-1.7c1.1,2.2,3.4,3.7,6.1,3.7
		c3.5,0,6.4-2.7,6.8-6.1c0-0.2,0-0.5,0-0.7C85,20.7,85,20.3,85,20.1z"/>
	<polygon points="47.5,47.5 3.2,47.5 3.2,3.2 47.5,3.2 47.5,11.7 50.8,11.7 50.8,9.1 50.8,0 0,0 0,50.8 50.8,50.8 50.8,29.7 
		47.5,29.7 	"/>
	<polygon class="st0" points="17,11.7 17,17.7 17,23.7 17,29.7 23.1,29.7 23.1,23.7 23.1,17.7 23.1,11.7 	"/>
</g>
</svg>
