<?xml version="1.0" encoding="utf-8"?>
<!-- Generator: Adobe Illustrator 22.0.0, SVG Export Plug-In . SVG Version: 6.00 Build 0)  -->
<svg version="1.1" xmlns="http://www.w3.org/2000/svg" xmlns:xlink="http://www.w3.org/1999/xlink" x="0px" y="0px"
	 viewBox="0 0 800 800" style="enable-background:new 0 0 800 800;" xml:space="preserve">
<style type="text/css">
	.st0{fill:#C41C1C;}
	.st1{fill:#FFFFFF;}
	.st2{fill:#0C1E3A;}
</style>
<g id="Background">
</g>
<g id="Objects">
	<g>
		<path class="st0" d="M331.1,206.5v58h25l-0.1-3.6l0,0v0l-0.1-7h-1.5c-0.8,0-1.4-0.9-1.4-1.9c0-0.7,0.3-1.3,0.7-1.6
			c0.6,0.8,1.4,1.5,2.2,2l0-1.3c-2-1.6-3.3-4-3.3-6.8c0-4.8,3.9-8.7,8.7-8.7c4.8,0,8.7,3.9,8.7,8.7c0,2.8-1.3,5.2-3.3,6.8l0,1.3
			c0.9-0.6,1.6-1.2,2.3-2c0.4,0.3,0.7,0.9,0.7,1.6c0,1-0.6,1.9-1.4,1.9h-1.5l-0.2,10.6h25.1v-58H331.1z"/>
		<g>
			<g>
				<g>
					<path class="st0" d="M358.9,440.7c0.3-0.4,0.5-0.8,0.8-1.2c-0.8-1.1-1.6-2.1-2.5-3.2c-0.9-1.2-1.9-2.4-2.8-3.6
						c-4.9-6.6-2.8-9.4-1.8-12.4c0.5-1.5,3.5-4.8,6.9-8.1c-1.4-1.3-2.9-2.7-4.3-4c-1.4,1.4-2.7,2.7-3.9,4c-8.2,9-5.9,13.4-4.3,17.8
						c1.3,3.4,6.4,7.8,10.6,12.3C358.1,441.9,358.5,441.3,358.9,440.7z"/>
				</g>
				<g>
					<path class="st0" d="M352.6,366.3c2-1.5,4.4-3.2,6.8-4.9c-4.6-3.2-9.3-6.6-13-9.4c-6.5-4.9,1.9-10.8,6.6-13.3
						c1.3-0.7,3.2-1.5,5.6-2.5c-1.6-0.6-3.3-1.2-5.1-1.9c-2-0.7-4-1.5-6.1-2.2c-1.1,0.6-2.2,1.2-3.2,1.8c-6.1,3.5-12.9,9.3-9.8,17.1
						c2.4,6,8.6,9.4,13.8,12.6C349.7,364.5,351.1,365.4,352.6,366.3z"/>
				</g>
				<g>
					<path class="st0" d="M364,446.1c-0.2-0.4-0.4-0.8-0.6-1.1c-0.6,0.7-1.2,1.4-1.7,2.1c1.3,1.9,2.5,3.9,3,6.1
						c0.5,2.7-0.4,5.7-1.4,8.2c0.2-0.1,0.5-0.4,0.7-0.6c0.2-0.3,0.4-0.6,0.6-0.9c1.7-3.1,2.2-6.1,1.3-9.4
						C365.3,449,364.7,447.5,364,446.1z"/>
				</g>
				<g>
					<path class="st0" d="M398.2,309.1c-0.7-6.1-5-10.5-6.2-11.2c-1.2-0.8-0.4-1.8-2.3-3.9c-1.8-2.1-6.7-4.3-12.8-4.3
						c-6.1,0.1-7.9,5.6-7.3,5.9c0.6,0.3,0.7,0.8,0.7,0.8c-1.5-0.2-1.1,1.6,2,3.9c3,2.3,8.5,4.9,10,4.4c1.1-0.3,2.3,0.3,3.1,1.3
						c0.3,0.4,0.6,0.9,0.7,1.4c0.1,0.4,0.1,0.9,0,1.3c-0.4,2.2-2.5,3.7-4,4.8c-2.2,1.6-4.6,3-6.8,4.6c-2.7,1.9-7.5,4.2-12.9,6.7
						c3.8,1.8,7.8,3.7,11.7,5.7c2.6-1,5.1-1.9,7.5-2.9C392.3,323.2,398.9,315.2,398.2,309.1z M377.2,294.5c-1,0-1.8-0.4-1.8-0.9
						c0-0.5,0.8-0.9,1.8-0.9c1,0,1.8,0.4,1.8,0.9C379,294.1,378.2,294.5,377.2,294.5z"/>
				</g>
				<g>
					<path class="st0" d="M368.9,368.3c-0.1-0.1-0.1-0.1-0.2-0.2c-0.8,0.5-1.5,0.9-2.2,1.4c-1.6,1-3.1,2-4.5,3
						c7,4.9,10.9,8.7,11.1,13.6c0.2,3.9-5.3,9.8-11.4,15.9c0.6,0.6,1.1,1.1,1.7,1.6c0.9,0.9,1.8,1.8,2.7,2.7c1-0.9,1.9-1.6,2.6-2.2
						c4.2-3.5,11.6-11.5,12.2-17.9C381.5,379.9,375.2,373,368.9,368.3z"/>
				</g>
			</g>
			<g>
				<path class="st0" d="M377.2,333.9c-11.1-6.3-25.6-11.8-31.2-15.8c-2.2-1.6-4.6-2.9-6.8-4.6c-1.5-1.1-3.6-2.6-4-4.8
					c-0.1-0.4-0.1-0.9,0-1.3c0.1-0.5,0.4-1,0.7-1.4c0.7-1,1.9-1.6,3.1-1.3c1.6,0.5,7-2.2,10-4.4c3-2.3,3.4-4.1,2-3.9
					c0,0,0.1-0.6,0.7-0.8c0.6-0.3-1.1-5.8-7.3-5.9c-6.1-0.1-11,2.2-12.8,4.3c-1.8,2.1-1.1,3.1-2.3,3.9c-1.2,0.8-5.5,5.1-6.2,11.2
					c-0.7,6.1,5.9,14.2,16.6,18.5c10.6,4.3,24,8.6,28.7,11.1c4.7,2.6,13.1,8.4,6.6,13.3c-6.5,4.9-16.3,11.5-22.6,16.2
					c-6.3,4.7-12.6,11.6-12,17.9c0.6,6.3,8,14.4,12.2,17.9c4.2,3.5,15,13.3,16,16.3c1,3,3.1,5.8-1.8,12.4c-0.3,0.5-0.7,0.9-1,1.4
					c-1.9,2.5-3.9,4.9-5.7,7.4c-2,2.9-3.8,6.1-4.8,9.5c-0.6,1.8-0.9,3.7-1,5.6c-0.1,1-0.1,2,0,3c0.1,1.9,0.6,3.9,1.6,5.6
					c0.6,1,1.1,2.1,1.2,2c0.1-0.2-1.3-4.3-1.5-6.2c-0.4-3.1,0.4-9,4.8-14.7c4.4-5.8,12.2-11.7,13.9-16.1c1.7-4.3,3.9-8.8-4.3-17.8
					c-8.2-9-21.9-20-21.7-26.3c0.3-6.2,6.4-10.7,17.4-17.9c4.5-2.9,9.2-5.6,13.6-8.6c4.6-3.2,8.9-7.4,8.6-13.5
					C387.5,340.4,381.8,336.5,377.2,333.9z M344.1,292.6c1,0,1.8,0.4,1.8,0.9c0,0.5-0.8,0.9-1.8,0.9c-1,0-1.8-0.4-1.8-0.9
					C342.3,293,343.1,292.6,344.1,292.6z"/>
			</g>
		</g>
		<g>
			<path class="st1" d="M363.5,405.8c0.1,0.1,0.3,0.3,0.4,0.4C363.8,406.1,363.6,406,363.5,405.8L363.5,405.8z"/>
			<path class="st2" d="M364.2,375.4l-0.4,18.8l-0.1,4.4c3.9-4,8.5-9.2,8.4-12.4C371.9,382.3,369,379,364.2,375.4z"/>
			<path class="st2" d="M367.7,420.8c-0.3-1-2.1-3-4.4-5.4l-0.2,9.1c0,0,0,0,0,0l-0.3,11.9c0.2-0.2,0.4-0.5,0.6-0.7
				c0.5-0.7,1.1-1.4,1.6-2.1c0.4-0.5,0.7-0.9,1-1.3c3.9-5.3,3-7.7,2-10.3C367.9,421.6,367.8,421.2,367.7,420.8z"/>
			<path class="st1" d="M358.4,400.8L358.4,400.8c-0.3-0.3-0.5-0.5-0.8-0.8C357.9,400.3,358.1,400.5,358.4,400.8z"/>
			<path class="st1" d="M344.4,346.1c0.1-0.2,0.2-0.3,0.2-0.5C344.5,345.8,344.5,345.9,344.4,346.1z"/>
			<path class="st2" d="M353.7,420.8c-0.1,0.4-0.3,0.8-0.4,1.2c-1,2.5-1.9,4.9,2,10.3c0.7,1,1.6,2,2.3,3l0.4,0.5
				c0.3,0.4,0.6,0.8,0.9,1.1l-0.4-22.1C354.6,418.8,353.8,420.3,353.7,420.8z"/>
			<path class="st2" d="M349.3,386.2c-0.1,3.1,4.1,8,9.1,13.1l0-1.3h0l-0.4-23.2C352.2,379,349.4,382.2,349.3,386.2z"/>
			<path class="st1" d="M357.6,400c-0.3-0.3-0.6-0.6-0.9-0.9C357,399.4,357.3,399.7,357.6,400z"/>
			<path class="st1" d="M348.6,383.9c-0.2,0.7-0.3,1.5-0.4,2.3c0,0.1,0,0.2,0,0.3c0-0.1,0-0.2,0-0.3
				C348.3,385.4,348.4,384.6,348.6,383.9z"/>
			<path class="st1" d="M355.5,397.8c0.3,0.3,0.5,0.6,0.8,0.9C356,398.4,355.8,398.1,355.5,397.8z"/>
			<path class="st1" d="M368.1,419.4c-0.3-0.5-0.8-1.1-1.4-1.8C367.3,418.3,367.8,418.9,368.1,419.4z"/>
			<path class="st1" d="M359,440.6c0,0.1-0.1,0.1-0.1,0.2C358.9,440.7,359,440.6,359,440.6L359,440.6z"/>
			<path class="st1" d="M368.1,419.4c0.3,0.4,0.4,0.7,0.5,1c0.1,0.4,0.3,0.8,0.5,1.2c-0.2-0.4-0.3-0.8-0.5-1.2
				C368.6,420.1,368.4,419.8,368.1,419.4z"/>
			<path class="st1" d="M344.1,346.8c0-0.2,0.1-0.3,0.2-0.5C344.2,346.5,344.2,346.7,344.1,346.8z"/>
			<path class="st1" d="M354.6,396.9c0.1,0.2,0.3,0.3,0.4,0.5C354.9,397.2,354.8,397.1,354.6,396.9z"/>
			<path class="st1" d="M351.1,392.7c0,0.1,0.1,0.1,0.2,0.2C351.2,392.8,351.2,392.7,351.1,392.7z"/>
			<path class="st1" d="M350.3,391.5c0.1,0.2,0.3,0.4,0.4,0.6C350.6,391.9,350.4,391.7,350.3,391.5z"/>
			<path class="st1" d="M345.4,344.5c-0.1,0.1-0.2,0.3-0.3,0.5C345.2,344.8,345.3,344.6,345.4,344.5z"/>
			<path class="st1" d="M349.6,340.7c0.1-0.1,0.2-0.2,0.4-0.2C349.9,340.6,349.8,340.6,349.6,340.7z"/>
			<path class="st2" d="M364.6,358.3c3.5-2.5,7-4.9,9.8-7.1c1.4-1.1,2-2.1,2-3.3c-0.2-2.4-3.3-5.4-8.4-8.2c-0.7-0.4-1.7-0.9-2.9-1.3
				l-0.3,12.1L364.6,358.3z"/>
			<path class="st1" d="M353.4,338.5c0.5-0.3,1.2-0.6,1.9-0.9C354.6,337.9,354,338.2,353.4,338.5z"/>
			<path class="st2" d="M346.9,351.2c3.1,2.3,7,5.1,10.8,7.7l-0.2-11.9l-0.1-9.2c-1.8,0.7-3.1,1.3-3.9,1.8c-5.1,2.8-8.3,5.9-8.4,8.2
				C344.9,349.1,345.5,350.1,346.9,351.2z"/>
			<path class="st1" d="M364.6,456.3c0-0.2,0-0.4,0.1-0.6C364.7,455.9,364.7,456.1,364.6,456.3z"/>
			<path class="st1" d="M362.6,445.8c0.2-0.3,0.5-0.6,0.7-0.9C363.1,445.3,362.8,445.5,362.6,445.8L362.6,445.8z"/>
			<path class="st1" d="M347,342.8c0.3-0.3,0.7-0.6,1.1-0.9C347.7,342.2,347.4,342.5,347,342.8z"/>
			<path class="st1" d="M347.7,353.1c2.5,1.8,5.3,3.8,8.2,5.9C353,356.9,350.2,354.9,347.7,353.1z"/>
			<path class="st1" d="M353.2,419.4c-0.3,0.4-0.4,0.7-0.5,1c-0.5,1.5-1.3,3-1.3,4.8c0-1.9,0.8-3.3,1.3-4.8
				C352.8,420.1,352.9,419.8,353.2,419.4z"/>
			<path class="st1" d="M350.7,340c-0.1,0.1-0.2,0.1-0.3,0.2C350.5,340.2,350.6,340.1,350.7,340z"/>
			<path class="st1" d="M369.6,423.1c-0.1-0.4-0.2-0.7-0.4-1.1C369.4,422.4,369.5,422.7,369.6,423.1z"/>
			<path class="st1" d="M346.2,343.6c-0.1,0.1-0.3,0.3-0.4,0.4C345.9,343.9,346,343.8,346.2,343.6z"/>
			<path class="st1" d="M343.9,348c0,0.2,0,0.3,0,0.5C343.9,348.3,343.9,348.2,343.9,348z"/>
			<path class="st1" d="M343.9,348c0-0.2,0-0.3,0-0.5C343.9,347.7,343.9,347.8,343.9,348z"/>
			<path class="st1" d="M344,349c0,0.2,0.1,0.3,0.1,0.5C344.1,349.3,344.1,349.1,344,349z"/>
			<path class="st1" d="M348.7,341.4c-0.1,0.1-0.2,0.2-0.4,0.3C348.5,341.6,348.6,341.5,348.7,341.4z"/>
			<path class="st1" d="M351.8,339.4c-0.2,0.1-0.3,0.2-0.5,0.3C351.4,339.6,351.6,339.5,351.8,339.4z"/>
			<path class="st1" d="M346.8,343c-0.2,0.2-0.4,0.4-0.6,0.6C346.4,343.4,346.6,343.2,346.8,343z"/>
			<path class="st1" d="M376,351.2c0.1-0.1,0.2-0.2,0.2-0.2C376.1,351.1,376,351.1,376,351.2z"/>
			<path class="st1" d="M338.3,304.6c0.1,0,0.2,0,0.3,0C338.5,304.6,338.4,304.6,338.3,304.6z"/>
			<path class="st1" d="M345.9,293.5L345.9,293.5c0-0.1,0-0.1,0-0.2C345.8,293.4,345.9,293.5,345.9,293.5z"/>
			<path class="st1" d="M342.8,292.9c0.3-0.2,0.8-0.3,1.2-0.3c0.5,0,0.9,0.1,1.2,0.3c-0.3-0.2-0.8-0.3-1.2-0.3
				C343.6,292.6,343.2,292.7,342.8,292.9z"/>
			<path class="st1" d="M335.9,306c0.1-0.1,0.1-0.2,0.2-0.3C336,305.8,335.9,305.9,335.9,306z"/>
			<path class="st1" d="M341.1,314.9c-0.4-0.3-0.8-0.5-1.1-0.8C340.3,314.4,340.7,314.7,341.1,314.9z"/>
			<path class="st1" d="M335.1,308.8c0-0.1,0-0.2,0-0.3C335.1,308.5,335.1,308.6,335.1,308.8c0,0.2,0.1,0.4,0.1,0.5
				C335.2,309.1,335.2,308.9,335.1,308.8z"/>
			<path class="st1" d="M343.4,316.4c-0.5-0.3-0.9-0.6-1.4-0.9C342.5,315.8,342.9,316.1,343.4,316.4z"/>
			<path class="st1" d="M343.2,303.6C343.2,303.6,343.2,303.6,343.2,303.6C343.2,303.6,343.2,303.6,343.2,303.6z"/>
			<path class="st1" d="M338.2,312.9c-0.2-0.2-0.4-0.3-0.6-0.5C337.8,312.6,338,312.7,338.2,312.9z"/>
			<path class="st1" d="M343.9,303.3C343.9,303.3,343.9,303.3,343.9,303.3C343.9,303.3,343.9,303.3,343.9,303.3z"/>
			<path class="st1" d="M351.7,297.1c0,0,0-0.1,0-0.1C351.8,297,351.7,297.1,351.7,297.1z"/>
			<path class="st1" d="M351.7,296.7C351.7,296.7,351.7,296.7,351.7,296.7C351.7,296.7,351.7,296.7,351.7,296.7z"/>
			<path class="st1" d="M351.7,297.3c0,0,0-0.1,0-0.1C351.7,297.2,351.7,297.3,351.7,297.3z"/>
			<path class="st1" d="M370,424.9c0-0.5-0.1-1-0.2-1.4C369.8,424,369.9,424.4,370,424.9z"/>
			<path class="st1" d="M345.2,302.6C345.2,302.6,345.2,302.6,345.2,302.6C345.2,302.6,345.2,302.6,345.2,302.6z"/>
			<path class="st1" d="M377.2,346.8c0-0.2-0.1-0.3-0.2-0.5C377.1,346.5,377.1,346.7,377.2,346.8z"/>
			<path class="st1" d="M344.6,303C344.6,303,344.6,303,344.6,303C344.6,303,344.6,303,344.6,303z"/>
			<path class="st1" d="M342.5,303.9C342.5,303.9,342.6,303.9,342.5,303.9C342.6,303.9,342.5,303.9,342.5,303.9z"/>
			<path class="st1" d="M351.8,296.9C351.8,296.9,351.8,296.8,351.8,296.9C351.8,296.8,351.8,296.9,351.8,296.9z"/>
			<path class="st1" d="M367.6,368.8c0.4-0.2,0.7-0.5,1.1-0.7c0,0,0.1,0.1,0.1,0.1c0,0-0.1-0.1-0.1-0.1
				C368.3,368.4,367.9,368.6,367.6,368.8z"/>
			<path class="st1" d="M356,374.9c0.6-0.5,1.2-0.9,1.9-1.4l0,0C357.3,374,356.6,374.4,356,374.9z"/>
			<path class="st1" d="M356.8,365.1c0.3-0.2,0.7-0.5,1-0.7l0,0C357.4,364.6,357.1,364.9,356.8,365.1z"/>
			<path class="st1" d="M372.7,383.9c0.2,0.7,0.3,1.5,0.4,2.2l0,0C373.1,385.4,372.9,384.6,372.7,383.9z"/>
			<path class="st1" d="M365.3,407.6c-0.3-0.3-0.6-0.6-0.9-0.9C364.7,407,365,407.3,365.3,407.6z"/>
			<path class="st1" d="M376.6,350.4c-0.1,0.1-0.2,0.2-0.3,0.4C376.5,350.6,376.6,350.5,376.6,350.4z"/>
			<path class="st1" d="M372.7,383.9c-0.3-1.2-0.9-2.3-1.7-3.4C371.8,381.6,372.4,382.8,372.7,383.9z"/>
			<path class="st1" d="M371.1,380.5c-0.3-0.4-0.6-0.8-1-1.2C370.5,379.7,370.8,380.1,371.1,380.5z"/>
			<path class="st1" d="M364.5,359.6L364.5,359.6c3-2.1,5.9-4.2,8.6-6.1C370.5,355.4,367.5,357.5,364.5,359.6z"/>
			<path class="st1" d="M377.3,348.7c0,0.2-0.1,0.3-0.1,0.5C377.3,349,377.3,348.9,377.3,348.7z"/>
			<path class="st1" d="M377.2,349.2c0,0.2-0.1,0.3-0.2,0.5C377.1,349.5,377.2,349.4,377.2,349.2z"/>
			<path class="st1" d="M377.4,348c0,0.2,0,0.3,0,0.5C377.4,348.3,377.4,348.2,377.4,348z"/>
			<path class="st1" d="M377,349.7c-0.1,0.2-0.2,0.5-0.4,0.7C376.8,350.2,376.9,349.9,377,349.7z"/>
			<path class="st1" d="M363.9,459.4c-0.1,0.2-0.1,0.4-0.2,0.6C363.7,459.8,363.8,459.6,363.9,459.4z"/>
			<path class="st1" d="M377.4,347.5c0-0.2-0.1-0.3-0.1-0.5C377.3,347.2,377.3,347.4,377.4,347.5z"/>
			<path class="st1" d="M375.7,351.5c-0.2,0.2-0.4,0.4-0.7,0.6c-0.6,0.5-1.3,0.9-1.9,1.4c0.7-0.5,1.3-1,1.9-1.4
				C375.3,351.8,375.5,351.7,375.7,351.5z"/>
			<path class="st1" d="M377.4,348c0-0.2,0-0.3,0-0.5C377.4,347.7,377.4,347.8,377.4,348z"/>
			<path class="st1" d="M370,298c0,0.1,0.1,0.1,0.1,0.2C370.1,298.2,370.1,298.1,370,298z"/>
			<path class="st1" d="M370.3,298.4c0.1,0.1,0.1,0.1,0.2,0.2C370.4,298.5,370.3,298.4,370.3,298.4z"/>
			<path class="st1" d="M351.5,297.6c0-0.1,0.1-0.1,0.1-0.1C351.6,297.5,351.6,297.6,351.5,297.6z"/>
			<path class="st1" d="M369.8,297.7c0,0.1,0.1,0.1,0.1,0.2C369.9,297.8,369.9,297.8,369.8,297.7z"/>
			<path class="st1" d="M369.6,296.7C369.6,296.7,369.6,296.7,369.6,296.7C369.6,296.7,369.6,296.7,369.6,296.7z"/>
			<path class="st1" d="M369.7,297.5c0,0,0,0.1,0.1,0.2C369.7,297.6,369.7,297.5,369.7,297.5z"/>
			<path class="st1" d="M370.4,296.4c-0.1,0-0.2,0-0.2,0c0,0,0,0,0,0C370.2,296.4,370.3,296.4,370.4,296.4z"/>
			<path class="st1" d="M370.1,296.4c0,0-0.1,0-0.1,0C370,296.4,370,296.4,370.1,296.4z"/>
			<path class="st1" d="M369.6,296.6C369.7,296.5,369.7,296.5,369.6,296.6C369.7,296.5,369.7,296.5,369.6,296.6z"/>
			<path class="st1" d="M369.8,296.5C369.8,296.4,369.8,296.4,369.8,296.5C369.8,296.4,369.8,296.4,369.8,296.5z"/>
			<path class="st1" d="M369.6,294.7c0-0.1,0.1-0.3,0.1-0.4C369.7,294.5,369.7,294.6,369.6,294.7z"/>
			<path class="st1" d="M369.6,297.2c0,0,0,0.1,0,0.1C369.6,297.3,369.6,297.2,369.6,297.2z"/>
			<path class="st1" d="M371.8,299.9c0.2,0.1,0.3,0.3,0.5,0.4C372.1,300.1,372,300,371.8,299.9z"/>
			<path class="st1" d="M371,292.3c0.2-0.2,0.3-0.4,0.5-0.5C371.4,291.9,371.2,292.1,371,292.3z"/>
			<path class="st1" d="M372.3,291.1c-0.1,0.1-0.2,0.2-0.4,0.3C372.1,291.3,372.2,291.2,372.3,291.1z"/>
			<path class="st1" d="M371.4,299.5c0.1,0.1,0.2,0.2,0.3,0.3C371.6,299.6,371.5,299.6,371.4,299.5z"/>
			<path class="st1" d="M371.2,299.3c-0.1-0.1-0.2-0.2-0.2-0.2C371,299.2,371.1,299.2,371.2,299.3z"/>
			<path class="st1" d="M369.6,297c0,0,0,0.1,0,0.1C369.6,297.1,369.6,297,369.6,297z"/>
			<path class="st1" d="M370.6,298.7c0.1,0.1,0.1,0.1,0.2,0.2C370.7,298.9,370.7,298.8,370.6,298.7z"/>
			<path class="st1" d="M375.5,293.5L375.5,293.5c0-0.1,0-0.1,0-0.2C375.5,293.4,375.5,293.5,375.5,293.5z"/>
			<path class="st1" d="M357,467.2C357,467.2,357,467.2,357,467.2C357,467.2,357,467.2,357,467.2C357,467.1,357,467.1,357,467.2
				C357,467.1,357,467.1,357,467.2C357,467.2,357,467.2,357,467.2z"/>
			<path class="st1" d="M377.4,394.4c1.8-2.7,3.2-5.6,3.4-8.1c0-0.2,0-0.4,0-0.6c0,0.2,0,0.4,0,0.6
				C380.6,388.8,379.3,391.7,377.4,394.4z"/>
			<path class="st1" d="M333.6,346.8c0-0.2,0-0.4,0-0.7C333.6,346.4,333.6,346.6,333.6,346.8z"/>
			<path class="st1" d="M369.6,296.9c0,0,0-0.1,0-0.1C369.6,296.8,369.6,296.9,369.6,296.9z"/>
			<path class="st1" d="M385.3,354c-0.3,0.4-0.6,0.8-1,1.2C384.7,354.8,385,354.4,385.3,354z"/>
			<path class="st1" d="M387.8,346.8c0,2.8-1,5.2-2.5,7.2C386.8,351.9,387.8,349.5,387.8,346.8z"/>
			<path class="st1" d="M369.7,295.6c0.3,0.1,0.4,0.3,0.5,0.5C370.1,295.9,370,295.7,369.7,295.6c-0.1,0-0.1-0.2-0.1-0.3
				C369.6,295.4,369.6,295.5,369.7,295.6z"/>
			<path class="st1" d="M386.2,291.5c-0.1-0.1-0.3-0.1-0.4-0.2C385.9,291.4,386.1,291.5,386.2,291.5z"/>
			<path class="st1" d="M377.4,394.4c-0.3,0.4-0.6,0.8-0.9,1.2C376.9,395.2,377.2,394.8,377.4,394.4z"/>
			<path class="st1" d="M376.9,289.7c-0.7,0-1.4,0.1-2,0.2C375.6,289.8,376.2,289.7,376.9,289.7c0.3,0,0.5,0,0.8,0
				c-0.1,0-0.3,0-0.4,0C377.2,289.7,377.1,289.7,376.9,289.7z"/>
			<path class="st1" d="M379,293.5L379,293.5c0-0.1,0-0.1,0-0.2C379,293.4,379,293.5,379,293.5z"/>
			<path class="st1" d="M378.8,289.7c-0.2,0-0.4,0-0.6,0C378.4,289.7,378.6,289.7,378.8,289.7z"/>
			<path class="st1" d="M370.3,296.1c0.1,0.1,0.1,0.3,0.1,0.3l0,0C370.4,296.4,370.4,296.3,370.3,296.1z"/>
			<path class="st1" d="M375.8,293c-0.1,0.1-0.2,0.2-0.3,0.3C375.5,293.2,375.6,293.1,375.8,293z"/>
			<path class="st1" d="M375.4,302.2C375.4,302.2,375.4,302.3,375.4,302.2C375.4,302.3,375.4,302.2,375.4,302.2z"/>
			<path class="st1" d="M378.5,292.9c-0.3-0.2-0.8-0.3-1.2-0.3c-0.5,0-0.9,0.1-1.2,0.3c0.3-0.2,0.8-0.3,1.2-0.3
				C377.7,292.6,378.1,292.7,378.5,292.9z"/>
			<path class="st1" d="M375.6,293.9C375.6,293.9,375.6,293.9,375.6,293.9C375.6,293.9,375.6,293.9,375.6,293.9z"/>
			<path class="st1" d="M379.4,304.1C379.4,304.1,379.4,304.2,379.4,304.1C379.4,304.2,379.4,304.1,379.4,304.1z"/>
			<path class="st1" d="M385,305.4c0.1,0.1,0.2,0.1,0.2,0.2C385.1,305.6,385,305.5,385,305.4z"/>
			<path class="st1" d="M384.4,305c0.1,0.1,0.2,0.1,0.3,0.2C384.6,305.1,384.5,305.1,384.4,305z"/>
			<path class="st1" d="M383.8,304.7c0.1,0,0.2,0.1,0.3,0.1C383.9,304.8,383.8,304.8,383.8,304.7z"/>
			<path class="st1" d="M384.1,304.8c0.1,0,0.2,0.1,0.3,0.1C384.2,304.9,384.2,304.9,384.1,304.8z"/>
			<path class="st1" d="M384.7,305.2c0.1,0.1,0.2,0.1,0.2,0.2C384.9,305.3,384.8,305.3,384.7,305.2z"/>
			<path class="st1" d="M381.9,290.2c-0.2,0-0.3-0.1-0.5-0.1C381.6,290.1,381.7,290.1,381.9,290.2z"/>
			<path class="st1" d="M382.4,304.7c0.1,0,0.2,0,0.3-0.1C382.6,304.7,382.5,304.7,382.4,304.7z"/>
			<path class="st1" d="M382.4,290.2c0.2,0,0.3,0.1,0.5,0.1C382.7,290.3,382.5,290.3,382.4,290.2z"/>
			<path class="st1" d="M382.7,304.6c0.1,0,0.2,0,0.3,0C382.9,304.6,382.8,304.6,382.7,304.6z"/>
			<path class="st1" d="M385.2,305.7c0.1,0.1,0.1,0.2,0.2,0.3C385.4,305.9,385.3,305.8,385.2,305.7z"/>
			<path class="st1" d="M380.9,290c-0.2,0-0.4-0.1-0.5-0.1C380.6,289.9,380.7,289.9,380.9,290z"/>
			<path class="st1" d="M383.7,312.4c-0.2,0.2-0.4,0.3-0.6,0.5C383.3,312.7,383.5,312.6,383.7,312.4z"/>
			<path class="st1" d="M369.1,321.7c-0.9,0.4-1.8,0.9-2.7,1.3C367.3,322.5,368.2,322.1,369.1,321.7z"/>
			<path class="st1" d="M385,291c0.1,0.1,0.3,0.1,0.4,0.2C385.3,291.1,385.2,291.1,385,291z"/>
			<path class="st1" d="M384.6,290.9c-0.1-0.1-0.3-0.1-0.4-0.2C384.3,290.8,384.5,290.8,384.6,290.9z"/>
			<path class="st1" d="M383.1,304.6c0.1,0,0.2,0,0.3,0C383.2,304.6,383.1,304.6,383.1,304.6z"/>
			<path class="st1" d="M383.8,290.6c-0.2,0-0.3-0.1-0.5-0.1C383.4,290.5,383.6,290.6,383.8,290.6z"/>
			<path class="st1" d="M383.4,304.7c0.1,0,0.2,0,0.3,0.1C383.6,304.7,383.5,304.7,383.4,304.7z"/>
			<path class="st1" d="M378,303.6c0,0,0.1,0,0.1,0C378.1,303.6,378.1,303.6,378,303.6z"/>
			<path class="st1" d="M376.1,302.6C376.1,302.6,376.1,302.6,376.1,302.6C376.1,302.6,376.1,302.6,376.1,302.6z"/>
			<path class="st1" d="M376.7,302.9C376.7,303,376.8,303,376.7,302.9C376.8,303,376.7,303,376.7,302.9z"/>
			<path class="st1" d="M374.7,290c-0.8,0.2-1.5,0.6-2.2,1C373.2,290.6,373.9,290.2,374.7,290z"/>
			<path class="st1" d="M379.9,289.8c-0.2,0-0.4,0-0.5-0.1C379.5,289.8,379.7,289.8,379.9,289.8z"/>
			<path class="st1" d="M378.7,303.9C378.7,303.9,378.8,303.9,378.7,303.9C378.8,303.9,378.7,303.9,378.7,303.9z"/>
			<path class="st1" d="M374,301.4C374.1,301.5,374.1,301.5,374,301.4C374.1,301.5,374.1,301.5,374,301.4z"/>
			<path class="st1" d="M372.9,300.6C372.9,300.7,372.9,300.7,372.9,300.6C372.9,300.7,372.9,300.7,372.9,300.6z"/>
			<path class="st1" d="M373.4,301C373.4,301.1,373.5,301.1,373.4,301C373.5,301.1,373.4,301.1,373.4,301z"/>
			<path class="st1" d="M377.4,303.3C377.4,303.3,377.4,303.3,377.4,303.3C377.4,303.3,377.4,303.3,377.4,303.3z"/>
			<path class="st1" d="M381,304.7C381,304.7,381.1,304.7,381,304.7C381.1,304.7,381,304.7,381,304.7z"/>
			<path class="st1" d="M380,304.4C380,304.4,380,304.4,380,304.4C380,304.4,380,304.4,380,304.4z"/>
			<path class="st1" d="M380.5,304.5C380.5,304.5,380.5,304.5,380.5,304.5C380.5,304.5,380.5,304.5,380.5,304.5z"/>
			<path class="st1" d="M363.2,461.4L363.2,461.4c0.1-0.2,0.1-0.3,0.2-0.5C363.3,461,363.2,461.2,363.2,461.4z"/>
			<path class="st1" d="M382.1,304.8C382.2,304.8,382.2,304.8,382.1,304.8C382.2,304.8,382.2,304.8,382.1,304.8z"/>
			<path class="st1" d="M374.7,301.8C374.7,301.9,374.8,301.9,374.7,301.8C374.8,301.9,374.7,301.9,374.7,301.8z"/>
			<path class="st1" d="M381.5,304.7C381.5,304.7,381.5,304.7,381.5,304.7C381.5,304.7,381.5,304.7,381.5,304.7z"/>
			<path class="st1" d="M382,304.8C382,304.8,381.9,304.8,382,304.8C381.9,304.8,381.9,304.8,382,304.8
				C382,304.8,382,304.8,382,304.8z"/>
			<path class="st1" d="M349.3,389.9c0.1,0.1,0.2,0.3,0.2,0.4C349.5,390.2,349.4,390.1,349.3,389.9z"/>
			<path class="st1" d="M365.4,449.6c0.1,0.3,0.2,0.6,0.3,0.9c0.3,1.1,0.4,2.1,0.4,3.1c0-1-0.2-2-0.4-3.1
				C365.6,450.2,365.5,449.9,365.4,449.6z"/>
			<path class="st2" d="M363.6,453.4c-0.2-1-0.6-2-1.1-3l-0.2,10.4C363.1,458.5,364,455.8,363.6,453.4z"/>
			<path class="st1" d="M366.2,453.6c0,0.4,0,0.8,0,1.2C366.1,454.4,366.2,454,366.2,453.6z"/>
			<path class="st1" d="M366.1,454.7c-0.1,1-0.3,1.9-0.6,2.9C365.8,456.7,366,455.7,366.1,454.7z"/>
			<path class="st1" d="M373.6,431.3c0.2-0.4,0.4-0.7,0.5-1.1c0.3-0.7,0.5-1.4,0.8-2.1c-0.2,0.7-0.5,1.4-0.8,2.1
				C374,430.5,373.9,430.9,373.6,431.3z"/>
			<path class="st1" d="M355.7,462c0-0.2-0.1-0.3-0.1-0.4C355.6,461.7,355.7,461.8,355.7,462z"/>
			<path class="st1" d="M356,465.5C356,465.5,356,465.5,356,465.5C356,465.5,356,465.5,356,465.5z"/>
			<path class="st1" d="M365.2,449c-0.1-0.4-0.3-0.8-0.4-1.1C364.9,448.2,365.1,448.6,365.2,449z"/>
			<path class="st1" d="M355.4,460c0,0.3,0,0.7,0.1,0.9c0,0.2,0.1,0.4,0.1,0.6c0-0.2-0.1-0.4-0.1-0.6
				C355.5,460.7,355.4,460.3,355.4,460z"/>
			<path class="st1" d="M375.7,423c0.1,0.7,0,1.4,0,2C375.8,424.4,375.8,423.7,375.7,423z"/>
			<path class="st1" d="M375.7,422.5c-0.1-0.4-0.1-0.7-0.2-1.1C375.6,421.8,375.6,422.1,375.7,422.5z"/>
			<path class="st1" d="M356.1,465.7C356.1,465.7,356.1,465.7,356.1,465.7C356.1,465.7,356.1,465.7,356.1,465.7z"/>
			<path class="st1" d="M375.7,425c-0.1,0.5-0.1,0.9-0.2,1.4C375.6,425.9,375.7,425.5,375.7,425z"/>
			<path class="st1" d="M364.7,459.4c0.2-0.4,0.4-0.8,0.5-1.1C365.1,458.6,364.9,459,364.7,459.4z"/>
			<path class="st1" d="M375.3,426.9c-0.1,0.4-0.2,0.8-0.4,1.2C375.1,427.7,375.2,427.3,375.3,426.9z"/>
			<path class="st1" d="M355.3,451.1c-0.1,0.2-0.1,0.5-0.2,0.7C355.2,451.5,355.2,451.3,355.3,451.1c0.2-0.7,0.5-1.4,0.8-2.2
				C355.8,449.6,355.5,450.3,355.3,451.1z"/>
			<path class="st1" d="M366.7,439.2C366.7,439.2,366.7,439.2,366.7,439.2C366.7,439.2,366.7,439.2,366.7,439.2z"/>
			<path class="st1" d="M368.8,437.1c1.2-1.2,2.2-2.4,3.2-3.5C371,434.8,369.9,436,368.8,437.1z"/>
			<path class="st1" d="M355.4,460c0-0.2,0-0.5,0-0.7C355.4,459.6,355.4,459.8,355.4,460z"/>
			<path class="st1" d="M356.2,465.8C356.2,465.8,356.2,465.9,356.2,465.8C356.2,465.9,356.2,465.8,356.2,465.8z"/>
			<path class="st1" d="M356.3,464.4c-0.1-0.2-0.1-0.4-0.2-0.6C356.2,464,356.3,464.2,356.3,464.4z"/>
			<path class="st1" d="M356.9,467C356.9,467,356.9,467.1,356.9,467C356.9,467.1,356.9,467,356.9,467z"/>
			<path class="st1" d="M357,467.1C357,467.1,357,467.1,357,467.1C357,467.1,357,467.1,357,467.1z"/>
			<path class="st1" d="M356.8,465.9c-0.1-0.4-0.2-0.9-0.4-1.4C356.5,465,356.7,465.5,356.8,465.9z"/>
			<path class="st1" d="M356.1,463.4c0-0.1-0.1-0.2-0.1-0.4C356,463.1,356,463.2,356.1,463.4z"/>
			<path class="st1" d="M354.4,460.9c-0.1-0.5-0.1-0.9-0.2-1.3c0-0.5-0.1-1-0.1-1.5c0,0.5,0,1,0.1,1.5
				C354.3,460,354.4,460.5,354.4,460.9z"/>
			<path class="st1" d="M355.9,462.9c-0.1-0.2-0.1-0.4-0.2-0.6C355.8,462.5,355.9,462.7,355.9,462.9z"/>
			<path class="st1" d="M357,467.2C357,467.1,357,467.1,357,467.2C357,467.1,357,467.1,357,467.2z"/>
			<path class="st1" d="M356.4,466.2C356.4,466.2,356.4,466.2,356.4,466.2C356.4,466.2,356.4,466.2,356.4,466.2z"/>
			<path class="st1" d="M356.5,466.3C356.5,466.3,356.5,466.4,356.5,466.3C356.5,466.4,356.5,466.3,356.5,466.3z"/>
			<path class="st1" d="M356.9,467C356.9,467,356.9,467,356.9,467C356.9,467,356.9,467,356.9,467z"/>
			<path class="st1" d="M356.3,466C356.3,466,356.3,466,356.3,466C356.3,466,356.3,466,356.3,466z"/>
			<path class="st1" d="M356.6,466.5C356.6,466.5,356.6,466.5,356.6,466.5C356.6,466.5,356.6,466.5,356.6,466.5z"/>
			<path class="st1" d="M356.8,466.9C356.8,466.9,356.8,466.9,356.8,466.9C356.8,466.9,356.8,466.9,356.8,466.9z"/>
			<path class="st1" d="M356.6,466.6C356.7,466.6,356.7,466.7,356.6,466.6C356.7,466.7,356.7,466.6,356.6,466.6z"/>
			<path class="st1" d="M356.7,466.7C356.7,466.8,356.7,466.8,356.7,466.7C356.7,466.8,356.7,466.8,356.7,466.7z"/>
			<path class="st1" d="M371.9,433.7c0.6-0.7,1.1-1.4,1.5-2C373,432.3,372.5,433,371.9,433.7z"/>
			<path class="st1" d="M379.6,315.3c-0.6,0.4-1.2,0.7-1.7,1.1C378.5,316,379.1,315.7,379.6,315.3z"/>
			<path class="st1" d="M379.6,315.3c0.6-0.4,1.1-0.8,1.7-1.1C380.8,314.5,380.2,314.9,379.6,315.3z"/>
			<path class="st1" d="M374.7,330.3c1.7-0.6,3.4-1.3,5.1-2C378.1,329,376.4,329.6,374.7,330.3z"/>
			<path class="st1" d="M386.9,291.9c-0.1-0.1-0.2-0.1-0.4-0.2C386.7,291.7,386.8,291.8,386.9,291.9z"/>
			<path class="st1" d="M365.3,327.8c0.3,0.1,0.6,0.3,0.9,0.4C365.9,328.1,365.6,328,365.3,327.8L365.3,327.8z"/>
			<path class="st1" d="M387.6,292.2c-0.1-0.1-0.2-0.1-0.3-0.2C387.4,292.1,387.5,292.2,387.6,292.2z"/>
			<path class="st1" d="M381.7,357.7c0.3-0.2,0.5-0.5,0.8-0.7C382.3,357.3,382,357.5,381.7,357.7z"/>
			<path class="st1" d="M384.1,338.8c-0.3-0.3-0.5-0.5-0.8-0.7C383.6,338.3,383.8,338.6,384.1,338.8z"/>
			<path class="st1" d="M384.8,339.6c-0.2-0.3-0.5-0.5-0.7-0.8C384.4,339.1,384.6,339.3,384.8,339.6z"/>
			<path class="st1" d="M366.2,328.2c3.8,1.8,7.6,3.7,11,5.7c2,1.1,4.2,2.5,6.1,4.2c-1.9-1.7-4.1-3.1-6.1-4.2
				C373.7,331.9,369.9,330,366.2,328.2z"/>
			<path class="st2" d="M374.7,317.3c1.1-0.7,2.1-1.4,3.2-2.1c1.2-0.8,2.5-1.6,3.6-2.4l0,0c1.4-1,3.2-2.4,3.5-4.1
				c0.1-0.3,0-0.6,0-0.9c-0.1-0.4-0.3-0.7-0.5-1c-0.4-0.6-1-0.9-1.6-0.9c-0.1,0-0.2,0-0.4,0.1c-0.2,0.1-0.5,0.1-0.7,0.1
				c-2.5,0-7.6-2.7-10.2-4.7c-1.1-0.9-3.7-3-3.1-4.8c0-0.1,0.1-0.2,0.1-0.3c-0.2-0.3-0.3-0.7-0.1-1.4c0.5-2.3,3.2-5.9,8.3-6
				c0.1,0,0.3,0,0.4,0c6.3,0,11.3,2.4,13.2,4.6c0.5,0.6,0.8,1.1,1.1,1.5v-9.2h-25.4l-0.8,36.8C369.5,320.4,372.7,318.7,374.7,317.3z
				"/>
			<path class="st1" d="M388.2,292.6c-0.1-0.1-0.2-0.1-0.3-0.2C388,292.5,388.1,292.5,388.2,292.6z"/>
			<path class="st1" d="M390.7,295.3c0.5,0.9,0.5,1.5,0.8,2C391.2,296.9,391.2,296.2,390.7,295.3z"/>
			<path class="st2" d="M497.1,326.4V210.7h-60.5v115.7h-45v-3.4c-2.7,2.2-6,4.2-9.6,5.6c-2.1,0.8-4.4,1.7-7.2,2.8
				c1,0.5,2,1.1,2.9,1.6c5,2.9,10.9,7,11.1,13.2c0.3,7-5,11.5-9,14.4c-2.7,1.9-5.6,3.6-8.3,5.3c-0.7,0.5-1.5,0.9-2.2,1.4l0.1,0
				l0.2,0.2c4,3,13.1,10.8,12.4,18.9c-0.6,6.9-8.5,15.2-12.6,18.6c-0.7,0.6-1.6,1.3-2.5,2.2l-0.3,0.3c1.5,1.5,2.9,2.9,4.2,4.3
				c8.3,9.1,6.4,14,4.7,18.3c-0.1,0.2-0.1,0.4-0.2,0.6c-1.1,2.7-4.2,5.9-7.5,9.3c-1.3,1.3-2.6,2.6-3.8,3.9l0.4,0.7l0,0.1
				c0.2,0.4,0.4,0.7,0.6,1.1c0.8,1.6,1.4,3.1,1.8,4.6c0.9,3.6,0.5,6.8-1.4,10.2c-0.2,0.4-0.5,0.8-0.8,1.1c0,0-0.5,0.5-0.9,0.8
				l-1.5,0.8l-0.3,13.4l-0.3,14.2l-0.9,2.8l-0.8-2.8l-0.3-20.3c0,0,0,0,0,0l-0.2-9.9c0,0,0,0,0,0l-0.2-10.6
				c-2.4,4.3-2.9,8.4-2.6,10.9c0.1,1,0.6,2.7,1,4c0.2,0.6,0.3,1.1,0.4,1.5c0.2,0.6,0.3,1.1-0.1,1.6l-0.3,0.3H357
				c-0.7,0-1-0.4-2.1-2.5c-0.9-1.7-1.5-3.8-1.7-6c-0.1-1-0.1-2.1,0-3.1c0.1-1.9,0.5-3.9,1.1-5.8c0.7-2.3,1.8-4.6,3.2-7l-0.5-0.6
				c-1.1-1.1-2.2-2.3-3.3-3.4c-3.3-3.4-6.5-6.5-7.5-9.3c-0.1-0.2-0.1-0.4-0.2-0.6c-1.7-4.3-3.6-9.2,4.7-18.3
				c1.1-1.2,2.3-2.5,3.9-4.1l0.3-0.3c-1-0.9-2-1.8-2.8-2.4c-4.1-3.4-12-11.7-12.6-18.6c-0.7-8.1,8.4-15.9,12.4-18.9
				c0.1-0.1,0.2-0.1,0.3-0.2l-0.1,0c-1.3-0.8-2.8-1.7-4.3-2.7c-0.5-0.3-1-0.6-1.5-0.9c-4.9-3-10.5-6.4-12.8-12.2
				c-1.5-3.8-1-7.6,1.6-11.1c1.9-2.6,4.8-5,8.7-7.2c0.9-0.5,1.8-1,2.9-1.6c-2.5-0.9-4.9-1.9-7.3-2.8c-3-1.2-5.7-2.8-8.2-4.5v2.3h-51
				V155.4h-60.5v231.4h35.9h24.6h51v122.7h60.5V386.8h45v122.7h60.5V386.8h23.6v-60.5H497.1z"/>
			<path class="st2" d="M344,288.6C344,288.6,344,288.6,344,288.6c0.1,0,0.3,0,0.4,0c5.2,0.1,7.9,3.7,8.3,6c0.1,0.7,0,1.1-0.1,1.4
				c0.1,0.1,0.1,0.2,0.1,0.3c0.6,1.7-2,3.9-3.1,4.8c-2.6,2-7.8,4.7-10.2,4.7c-0.3,0-0.5,0-0.7-0.1c-0.1,0-0.2-0.1-0.4-0.1
				c-0.5,0-1.1,0.4-1.6,0.9c-0.2,0.3-0.4,0.7-0.5,1c-0.1,0.3-0.1,0.6,0,0.9c0.3,1.7,2.2,3.1,3.5,4.1l0,0c1.2,0.9,2.4,1.7,3.6,2.4
				c1.1,0.7,2.1,1.4,3.2,2.1c2.3,1.6,6,3.5,10.6,5.6l-0.6-37.3h-25.4v7.4C333.3,290.8,338.1,288.6,344,288.6z"/>
			<path class="st1" d="M389.4,293.6c0.1,0.1,0.3,0.3,0.4,0.4C389.6,293.8,389.5,293.7,389.4,293.6z"/>
			<path class="st1" d="M388.7,293c-0.1-0.1-0.2-0.2-0.3-0.2C388.5,292.9,388.6,292.9,388.7,293z"/>
			<path class="st1" d="M351.4,297.9c0-0.1,0.1-0.1,0.1-0.2C351.4,297.8,351.4,297.8,351.4,297.9z"/>
			<path class="st1" d="M380.1,359c0.3-0.2,0.6-0.4,0.8-0.6C380.6,358.6,380.4,358.8,380.1,359z"/>
			<path class="st1" d="M366.6,409c-0.3-0.3-0.6-0.6-0.9-0.9C366,408.4,366.3,408.7,366.6,409z"/>
			<path class="st1" d="M386.1,341.3c-0.3-0.4-0.6-0.9-0.9-1.3C385.5,340.4,385.8,340.8,386.1,341.3z"/>
			<path class="st1" d="M370.4,402.6c0.3-0.3,0.6-0.6,0.9-0.9C371,402,370.7,402.3,370.4,402.6z"/>
			<path class="st1" d="M369.1,411.6c-0.3-0.3-0.5-0.6-0.8-0.9C368.6,411,368.9,411.3,369.1,411.6z"/>
			<path class="st1" d="M366.1,406.3c-0.4-0.4-0.9-0.9-1.3-1.3C365.2,405.4,365.6,405.9,366.1,406.3c0.5-0.4,1-0.8,1.4-1.2
				C367.1,405.5,366.6,405.9,366.1,406.3z"/>
			<path class="st1" d="M374.9,419.6c-0.2-0.4-0.4-0.8-0.6-1.3C374.5,418.8,374.7,419.2,374.9,419.6z"/>
			<path class="st1" d="M373.5,417c-0.3-0.5-0.6-0.9-1-1.4C372.9,416.1,373.2,416.5,373.5,417z"/>
			<path class="st1" d="M374.3,418.4c-0.2-0.4-0.5-0.9-0.8-1.4C373.8,417.5,374,417.9,374.3,418.4z"/>
			<path class="st1" d="M367.9,410.3c-0.3-0.3-0.6-0.6-0.9-0.9C367.3,409.7,367.6,410,367.9,410.3z"/>
			<path class="st1" d="M380.1,359c-0.3,0.2-0.6,0.4-0.9,0.6c-2.2,1.5-4.5,3-6.7,4.4c2.3-1.4,4.6-2.8,6.7-4.4
				C379.5,359.4,379.8,359.2,380.1,359z"/>
			<path class="st1" d="M367.3,367.2c1.1-0.7,2.3-1.4,3.4-2.1C369.6,365.8,368.5,366.5,367.3,367.2z"/>
			<path class="st1" d="M375.3,420.8c-0.1-0.4-0.3-0.8-0.4-1.2C375,420,375.2,420.4,375.3,420.8z"/>
			<path class="st1" d="M387.1,343.1c-0.1-0.3-0.3-0.6-0.4-0.9C386.8,342.5,387,342.8,387.1,343.1z"/>
			<path class="st1" d="M364.3,369.1L364.3,369.1c0.4-0.3,0.9-0.6,1.3-0.9c0.6-0.4,1.1-0.7,1.7-1.1c-0.6,0.4-1.1,0.7-1.7,1.1
				C365.2,368.6,364.8,368.9,364.3,369.1z"/>
			<path class="st1" d="M372.7,400.2c0.3-0.3,0.7-0.7,1-1.1C373.4,399.5,373.1,399.9,372.7,400.2z"/>
			<path class="st1" d="M370.4,402.6c-0.6,0.6-1.2,1.1-1.7,1.5c-0.3,0.3-0.7,0.6-1.2,1c0.4-0.4,0.8-0.7,1.2-1
				C369.2,403.7,369.8,403.1,370.4,402.6z"/>
			<path class="st1" d="M374.7,398c0.3-0.4,0.6-0.8,1-1.2C375.3,397.2,375,397.6,374.7,398z"/>
			<path class="st1" d="M389.2,293.4c-0.1-0.1-0.2-0.2-0.3-0.3C389,293.3,389.1,293.3,389.2,293.4z"/>
			<path class="st1" d="M339.9,290.1c-0.2,0-0.4,0.1-0.5,0.1C339.6,290.1,339.8,290.1,339.9,290.1z"/>
			<path class="st1" d="M343.1,289.7c-0.2,0-0.4,0-0.6,0C342.7,289.7,342.9,289.7,343.1,289.7z"/>
			<path class="st1" d="M339,290.2c-0.2,0-0.3,0.1-0.5,0.1C338.6,290.3,338.8,290.3,339,290.2z"/>
			<path class="st1" d="M340.9,289.9c-0.2,0-0.4,0.1-0.5,0.1C340.6,289.9,340.8,289.9,340.9,289.9z"/>
			<path class="st1" d="M346.5,301.9C346.6,301.9,346.6,301.9,346.5,301.9C346.6,301.9,346.6,301.9,346.5,301.9z"/>
			<path class="st1" d="M348.4,300.7C348.4,300.7,348.5,300.7,348.4,300.7C348.5,300.7,348.4,300.7,348.4,300.7z"/>
			<path class="st1" d="M345.9,302.3C345.9,302.3,345.9,302.2,345.9,302.3C345.9,302.2,345.9,302.3,345.9,302.3z"/>
			<path class="st1" d="M347.8,301.1C347.8,301.1,347.9,301.1,347.8,301.1C347.9,301.1,347.8,301.1,347.8,301.1z"/>
			<path class="st1" d="M342,289.8c-0.2,0-0.4,0-0.6,0.1C341.6,289.8,341.8,289.8,342,289.8z"/>
			<path class="st1" d="M347.2,301.5C347.2,301.5,347.2,301.5,347.2,301.5C347.2,301.5,347.2,301.5,347.2,301.5z"/>
			<path class="st1" d="M339.1,304.8C339.1,304.8,339.2,304.8,339.1,304.8C339.2,304.8,339.1,304.8,339.1,304.8z"/>
			<path class="st1" d="M339.4,304.8C339.4,304.8,339.4,304.8,339.4,304.8C339.4,304.8,339.4,304.8,339.4,304.8
				C339.4,304.8,339.4,304.8,339.4,304.8z"/>
			<path class="st1" d="M341.9,304.2C341.9,304.2,341.9,304.1,341.9,304.2C341.9,304.1,341.9,304.2,341.9,304.2z"/>
			<path class="st1" d="M338.6,304.7c0.1,0,0.2,0,0.3,0.1C338.8,304.7,338.7,304.7,338.6,304.7z"/>
			<path class="st1" d="M339.8,304.7C339.8,304.7,339.8,304.7,339.8,304.7C339.8,304.7,339.8,304.7,339.8,304.7z"/>
			<path class="st1" d="M341.3,304.4C341.3,304.4,341.3,304.4,341.3,304.4C341.3,304.4,341.3,304.4,341.3,304.4z"/>
			<path class="st1" d="M340.2,304.7C340.3,304.7,340.3,304.7,340.2,304.7C340.3,304.7,340.3,304.7,340.2,304.7z"/>
			<path class="st1" d="M340.8,304.5C340.8,304.5,340.8,304.5,340.8,304.5C340.8,304.5,340.8,304.5,340.8,304.5z"/>
			<path class="st1" d="M350.5,298.9c0.1-0.1,0.1-0.1,0.2-0.2C350.7,298.8,350.6,298.9,350.5,298.9z"/>
			<path class="st1" d="M349,300.3c0.2-0.1,0.4-0.3,0.5-0.4C349.3,300,349.2,300.1,349,300.3z"/>
			<path class="st1" d="M351.6,296.5C351.6,296.5,351.7,296.5,351.6,296.5C351.7,296.5,351.6,296.5,351.6,296.5z"/>
			<path class="st1" d="M351.6,295.6c-0.6,0.3-0.7,0.8-0.7,0.8l0,0C350.9,296.4,351,295.8,351.6,295.6c0.1,0,0.1-0.2,0.1-0.3
				C351.7,295.4,351.7,295.5,351.6,295.6z"/>
			<path class="st1" d="M351.4,296.4c0,0-0.1,0-0.1,0C351.3,296.4,351.4,296.4,351.4,296.4z"/>
			<path class="st1" d="M351.7,294.7c0-0.1-0.1-0.3-0.1-0.4C351.6,294.5,351.6,294.6,351.7,294.7z"/>
			<path class="st1" d="M351.1,298.2c0-0.1,0.1-0.1,0.1-0.2C351.2,298.1,351.2,298.2,351.1,298.2z"/>
			<path class="st1" d="M351,298.4c-0.1,0.1-0.1,0.1-0.2,0.2C350.9,298.5,351,298.4,351,298.4z"/>
			<path class="st1" d="M350.9,296.4c0.1,0,0.2,0,0.2,0c0,0,0,0,0,0C351.1,296.4,351,296.4,350.9,296.4z"/>
			<path class="st1" d="M351.6,296.5C351.5,296.4,351.5,296.4,351.6,296.5C351.5,296.4,351.5,296.4,351.6,296.5z"/>
			<path class="st1" d="M344,289.7c-0.1,0-0.3,0-0.4,0c0.3,0,0.5,0,0.8,0c0.8,0,1.5,0.1,2.1,0.3c-0.6-0.2-1.3-0.3-2.1-0.3
				C344.3,289.7,344.1,289.7,344,289.7z"/>
			<path class="st1" d="M348.9,291c-0.7-0.5-1.5-0.8-2.4-1.1C347.4,290.2,348.2,290.6,348.9,291z"/>
			<path class="st1" d="M349.5,291.5c0.3,0.2,0.6,0.5,0.8,0.8C350.1,292,349.8,291.8,349.5,291.5z"/>
			<path class="st1" d="M349.7,299.7c0.1-0.1,0.2-0.2,0.3-0.3C349.9,299.6,349.8,299.6,349.7,299.7z"/>
			<path class="st1" d="M349.5,291.5c-0.2-0.2-0.4-0.3-0.6-0.5C349.1,291.2,349.3,291.4,349.5,291.5z"/>
			<path class="st1" d="M336.3,291c-0.2,0.1-0.3,0.1-0.4,0.2C336,291.1,336.2,291.1,336.3,291z"/>
			<path class="st1" d="M350.4,299.1c-0.1,0.1-0.2,0.2-0.2,0.2C350.2,299.2,350.3,299.2,350.4,299.1z"/>
			<path class="st1" d="M350.9,293.1c-0.1-0.2-0.2-0.4-0.4-0.5C350.7,292.7,350.8,292.9,350.9,293.1z"/>
			<path class="st1" d="M343.9,394.4c0.3,0.4,0.6,0.8,0.9,1.2C344.4,395.2,344.2,394.8,343.9,394.4z"/>
			<path class="st1" d="M345.7,396.8c0.3,0.4,0.6,0.8,1,1.2C346.3,397.6,346,397.2,345.7,396.8z"/>
			<path class="st1" d="M347.6,399.1c0.3,0.4,0.7,0.7,1,1.1C348.3,399.9,347.9,399.5,347.6,399.1z"/>
			<path class="st1" d="M350,401.7c0.3,0.3,0.6,0.6,0.9,0.9C350.7,402.3,350.3,402,350,401.7z"/>
			<path class="st1" d="M334.5,343.1c-0.2,0.4-0.3,0.8-0.5,1.2C334.2,343.9,334.3,343.5,334.5,343.1z"/>
			<path class="st1" d="M341.7,359.4c0.3,0.2,0.7,0.5,1,0.7C342.3,359.9,342,359.6,341.7,359.4z"/>
			<path class="st1" d="M339.3,357.5c0.3,0.3,0.6,0.5,0.9,0.8C339.9,358.1,339.6,357.8,339.3,357.5z"/>
			<path class="st1" d="M335.8,340.8c0.4-0.5,0.8-1.1,1.3-1.6C336.6,339.8,336.2,340.3,335.8,340.8z"/>
			<path class="st1" d="M337.1,290.7c-0.2,0.1-0.3,0.1-0.5,0.2C336.8,290.8,337,290.8,337.1,290.7z"/>
			<path class="st1" d="M355.1,451.7c-0.4,1.4-0.7,2.8-0.8,4.2C354.4,454.5,354.7,453.1,355.1,451.7z"/>
			<path class="st1" d="M340.4,386.2c0.2,2.6,1.6,5.4,3.4,8.1C342,391.7,340.7,388.8,340.4,386.2c0-0.2,0-0.4,0-0.6
				C340.4,385.8,340.4,386,340.4,386.2z"/>
			<path class="st1" d="M354.5,405.7c0.3,0.3,0.7,0.6,1.1,1C355.2,406.3,354.9,406,354.5,405.7z"/>
			<path class="st1" d="M347.8,417c0.3-0.5,0.6-0.9,1-1.4C348.4,416.1,348.1,416.5,347.8,417z"/>
			<path class="st1" d="M358,442c-0.1,0.1-0.2,0.3-0.3,0.4c-1.7-1.8-3.6-3.6-5.3-5.4c1.7,1.7,3.5,3.5,5.3,5.4
				C357.8,442.3,357.9,442.2,358,442z"/>
			<path class="st1" d="M346.4,419.6c0.2-0.4,0.4-0.8,0.6-1.3C346.8,418.8,346.6,419.2,346.4,419.6z"/>
			<path class="st1" d="M347,418.4c0.2-0.4,0.5-0.9,0.8-1.4C347.5,417.5,347.3,417.9,347,418.4z"/>
			<path class="st1" d="M346,420.8c0.1-0.4,0.3-0.8,0.4-1.2C346.3,420,346.1,420.4,346,420.8z"/>
			<path class="st1" d="M354.8,408.9c-1.2,1.2-2.3,2.4-3.4,3.5C352.5,411.3,353.6,410.1,354.8,408.9z"/>
			<path class="st1" d="M345.6,423c0,0.3,0,0.7,0,1C345.5,423.7,345.5,423.4,345.6,423z"/>
			<path class="st1" d="M353.5,404.8c-0.3-0.3-0.6-0.5-0.9-0.7c-0.5-0.4-1.1-0.9-1.7-1.5c0.6,0.6,1.2,1.1,1.7,1.5
				C352.9,404.3,353.2,404.5,353.5,404.8z"/>
			<path class="st1" d="M336.7,305.2c0.1-0.1,0.2-0.1,0.3-0.2C336.8,305.1,336.7,305.1,336.7,305.2z"/>
			<path class="st1" d="M337,305c0.1-0.1,0.2-0.1,0.3-0.1C337.2,304.9,337.1,304.9,337,305z"/>
			<path class="st1" d="M336.4,305.4c0.1-0.1,0.2-0.1,0.2-0.2C336.5,305.3,336.5,305.3,336.4,305.4z"/>
			<path class="st1" d="M337.3,304.8c0.1,0,0.2-0.1,0.3-0.1C337.5,304.8,337.4,304.8,337.3,304.8z"/>
			<path class="st1" d="M338,290.5c-0.2,0-0.3,0.1-0.5,0.1C337.7,290.6,337.9,290.5,338,290.5z"/>
			<path class="st1" d="M336.4,305.4c-0.1,0.1-0.2,0.1-0.2,0.2C336.2,305.6,336.3,305.5,336.4,305.4z"/>
			<path class="st1" d="M337.6,304.7c0.1,0,0.2,0,0.3-0.1C337.8,304.7,337.7,304.7,337.6,304.7z"/>
			<path class="st1" d="M338,304.6c0.1,0,0.2,0,0.3,0C338.2,304.6,338.1,304.6,338,304.6z"/>
			<path class="st1" d="M335.5,291.3c-0.1,0.1-0.3,0.1-0.4,0.2C335.2,291.5,335.4,291.4,335.5,291.3z"/>
			<path class="st1" d="M333.5,292.4c-0.1,0.1-0.2,0.1-0.3,0.2C333.2,292.6,333.3,292.5,333.5,292.4z"/>
			<path class="st1" d="M335.4,341.4c-0.4,0.5-0.7,1.1-0.9,1.7C334.8,342.5,335.1,341.9,335.4,341.4z"/>
			<path class="st1" d="M334.8,291.7c-0.1,0.1-0.3,0.1-0.4,0.2C334.5,291.8,334.6,291.7,334.8,291.7z"/>
			<path class="st1" d="M337.6,338.8c1.9-1.9,4.3-3.6,6.6-4.9c0.7-0.4,1.3-0.8,2-1.1c-0.7,0.4-1.4,0.7-2,1.1
				C341.9,335.2,339.5,336.8,337.6,338.8z"/>
			<path class="st1" d="M334.1,292c-0.1,0.1-0.2,0.1-0.4,0.2C333.9,292.2,334,292.1,334.1,292z"/>
			<path class="st1" d="M331.6,293.9c0.1-0.1,0.2-0.2,0.4-0.4C331.8,293.7,331.7,293.8,331.6,293.9z"/>
			<path class="st1" d="M332.9,292.8c-0.1,0.1-0.2,0.2-0.3,0.2C332.7,292.9,332.8,292.9,332.9,292.8z"/>
			<path class="st1" d="M332.4,293.2c-0.1,0.1-0.2,0.2-0.3,0.3C332.2,293.3,332.3,293.3,332.4,293.2z"/>
		</g>
		<path class="st0" d="M411.8,533.7c-145.9,0-264.2-118.3-264.2-264.2c0-105.9,62.3-197.3,152.3-239.4
			C189.3,66.8,109.6,171,109.6,293.9c0,153.4,124.4,277.8,277.8,277.8c122.8,0,227.1-79.7,263.7-190.3
			C609,471.4,517.7,533.7,411.8,533.7z"/>
		<g>
			<path class="st2" d="M589.5,595.7h-7.3v18.2h6.3c7.2,0,10-3.2,10-9.5C598.5,599,595.7,595.7,589.5,595.7z"/>
			<path class="st2" d="M336.3,596.7c-0.8,5.4-3,14.9-5.7,26.4h11.8c-2.8-12.4-4.9-21.1-5.9-26.4H336.3z"/>
			<path class="st2" d="M635.3,566.9l-74.1-52.2c-3,2.4-6.1,4.8-9.2,7.1c-23.4,17.2-49.1,30.5-76.5,39.6
				c-28.3,9.4-58,14.2-88.1,14.2c-37.6,0-74.1-7.4-108.4-21.9c-25.4-10.7-48.8-25-69.8-42.6l-90.5,55.8H82.5v100.2h595.1V566.9
				H635.3z M143.4,647.4h-31.1v-59.3h10v51.4h22.2L143.4,647.4z M160.5,647.4h-10v-59.3h10V647.4z M204.6,596.3h-13.9v51.2h-10
				v-51.2h-13.9v-8.1h37.7V596.3z M265.7,647.4h-10v-27.3h-17.3v27.3h-10v-59.3h10v24h17.3v-24h10V647.4z M309.3,647.4h-31.9v-59.3
				h31.7v8.1h-21.8v16.1h20.8v8h-20.8v19.1h23.3L309.3,647.4z M348,647.4l-3.7-16.3h-15.4l-3.7,16.3h-10c0,0,15.1-59.3,15.1-59.3
				h12.9l15.3,59.3H348z M395.7,647.4h-31.1v-59.3h10v51.4h22.2L395.7,647.4z M427.7,596.3h-13.9v51.2h-10v-51.2h-13.9v-8.1h37.7
				V596.3z M471.3,647.4h-10v-27.3H444v27.3h-10v-59.3h10v24h17.3v-24h10V647.4z M500.3,648.4c-17.8,0-19.6-15.5-19.6-30.8
				c0-18.5,5.7-30.4,20.4-30.4c16.5,0,17.6,13.5,17.8,17.8H509c-0.2-2-0.4-9.9-8.1-9.9c-8.2,0-9.9,9.7-9.9,22.6
				c0,11.6,1.3,22.9,9.5,22.9c7.4,0,8.2-7.6,8.5-10.2h10C518.7,633.6,517.3,648.4,500.3,648.4z M555.7,647.4l-3.7-16.3h-15.4
				l-3.7,16.3h-10c0,0,15.1-59.3,15.1-59.3h12.9l15.3,59.3H555.7z M607.5,632.6v2.4c0,6.3,0.3,9.3,0.9,12.5h-9.7
				c-0.9-2.7-1-7.6-1-12.6v-2.1c0-8.1-1.9-11.3-9.7-11.3h-5.9v26h-9.9v-59.3h18.6c11.3,0,17.6,5.6,17.6,15.9
				c0,8.7-4.9,12.4-8.4,13.6C605.4,619.8,607.5,624,607.5,632.6z M649.6,647.4h-31.9v-59.3h31.7v8.1h-21.8v16.1h20.8v8h-20.8v19.1
				h23.3L649.6,647.4z"/>
			<path class="st2" d="M544,596.7c-0.8,5.4-3,14.9-5.7,26.4h11.8c-2.8-12.4-4.9-21.1-5.9-26.4H544z"/>
		</g>
	</g>
</g>
</svg>
